# Blender v2.78 (sub 0) OBJ File: 'Sword3.blend'
# www.blender.org
mtllib Sword3.mtl
o Sword
v 0.000000 -0.057971 0.093471
v -0.000000 -0.050000 0.221284
v -0.000000 -0.036887 1.211398
v 0.012478 -0.013660 1.211398
v 0.015400 -0.020933 0.178856
v 0.021141 -0.020933 0.093471
v 0.015582 -0.000000 0.093471
v 0.023437 -0.000000 0.087971
v 0.028995 -0.031990 0.087971
v -0.000000 0.000000 1.297737
v 0.007293 0.000000 1.211398
v 0.000000 -0.069028 0.087971
v 0.000000 -0.100246 0.081050
v 0.032360 -0.032330 0.079637
v 0.029144 -0.028817 0.073351
v 0.000000 -0.019236 0.068131
v 0.033653 -0.000000 0.079458
v 0.032045 -0.000000 0.075502
v 0.030437 -0.000000 0.073408
v 0.030288 -0.000000 0.087126
v 0.031971 -0.000000 0.084241
v 0.000000 -0.012581 0.060748
v 0.000000 -0.013628 0.066362
v 0.016845 -0.000000 0.065910
v 0.014997 -0.000000 0.060296
v 0.013232 -0.000000 -0.062487
v 0.000000 -0.012216 -0.062035
v 0.016201 -0.000000 -0.069136
v 0.000000 -0.019510 -0.066082
v 0.015007 -0.000000 -0.074422
v 0.000000 -0.012873 -0.073970
v 0.000000 -0.000000 -0.077316
v 0.000000 0.057971 0.093471
v 0.021141 0.020933 0.093471
v 0.015400 0.020933 0.178856
v 0.012478 0.013660 1.211398
v -0.000000 0.036888 1.211398
v -0.000000 0.050000 0.221284
v 0.028995 0.031990 0.087971
v 0.000000 0.069028 0.087971
v 0.000000 0.100246 0.081050
v 0.032360 0.032330 0.079637
v 0.029144 0.028817 0.073351
v 0.000000 0.019236 0.068131
v 0.000000 0.012581 0.060748
v 0.000000 0.013628 0.066362
v 0.000000 0.012216 -0.062035
v 0.000000 0.019510 -0.066082
v 0.000000 0.012873 -0.073970
v -0.021141 -0.020933 0.093471
v -0.015400 -0.020933 0.178856
v -0.012478 -0.013660 1.211398
v -0.028995 -0.031990 0.087971
v -0.023437 -0.000000 0.087971
v -0.015582 -0.000000 0.093471
v -0.007294 0.000000 1.211398
v -0.032360 -0.032330 0.079637
v -0.029144 -0.028817 0.073351
v -0.030437 -0.000000 0.073408
v -0.032045 -0.000000 0.075502
v -0.033653 -0.000000 0.079458
v -0.031971 -0.000000 0.084241
v -0.030288 -0.000000 0.087126
v -0.014997 -0.000000 0.060296
v -0.016845 -0.000000 0.065910
v -0.013232 -0.000000 -0.062487
v -0.016201 -0.000000 -0.069136
v -0.015007 -0.000000 -0.074422
v -0.012478 0.013660 1.211398
v -0.015400 0.020933 0.178856
v -0.021141 0.020933 0.093471
v -0.028995 0.031990 0.087971
v -0.032360 0.032330 0.079637
v -0.029144 0.028817 0.073351
vt 0.2591 0.2075
vt 0.2525 0.2062
vt 0.2526 0.2200
vt 0.2544 0.3718
vt 0.2584 0.3718
vt 0.2574 0.2265
vt 0.2541 0.2044
vt 0.2491 0.2055
vt 0.2491 0.2068
vt 0.2528 0.3860
vt 0.2519 0.3719
vt 0.2607 0.2066
vt 0.7085 0.1345
vt 0.6891 0.1528
vt 0.7476 0.1321
vt 0.7490 0.1394
vt 0.7519 0.1450
vt 0.7569 0.1702
vt 0.7756 0.1440
vt 0.7759 0.1417
vt 0.7754 0.1380
vt 0.7753 0.1337
vt 0.7748 0.1309
vt 0.7743 0.1250
vt 0.6258 0.7042
vt 0.6421 0.7041
vt 0.6431 0.7089
vt 0.6252 0.7089
vt 0.7621 0.1710
vt 0.7759 0.1577
vt 0.6278 0.6024
vt 0.6428 0.6022
vt 0.1014 0.0661
vt 0.0864 0.0660
vt 0.0822 0.0605
vt 0.1034 0.0604
vt 0.0871 0.0535
vt 0.1034 0.0559
vt 0.0953 0.0461
vt 0.2591 0.2075
vt 0.2574 0.2265
vt 0.2584 0.3718
vt 0.2544 0.3718
vt 0.2526 0.2200
vt 0.2525 0.2062
vt 0.2541 0.2044
vt 0.2607 0.2066
vt 0.7085 0.1345
vt 0.7476 0.1321
vt 0.6891 0.1528
vt 0.7490 0.1394
vt 0.7519 0.1450
vt 0.7569 0.1702
vt 0.6258 0.7042
vt 0.6252 0.7089
vt 0.7621 0.1710
vt 0.6278 0.6024
vt 0.0822 0.0605
vt 0.0864 0.0660
vt 0.0871 0.0535
vt 0.2544 0.3718
vt 0.2526 0.2200
vt 0.2525 0.2062
vt 0.2491 0.2068
vt 0.2491 0.2055
vt 0.2541 0.2044
vt 0.2519 0.3719
vt 0.7476 0.1321
vt 0.7490 0.1394
vt 0.7519 0.1450
vt 0.7754 0.1380
vt 0.7759 0.1417
vt 0.7756 0.1440
vt 0.7748 0.1309
vt 0.7753 0.1337
vt 0.7743 0.1250
vt 0.6431 0.7089
vt 0.6421 0.7041
vt 0.7759 0.1577
vt 0.6428 0.6022
vt 0.1014 0.0661
vt 0.1034 0.0604
vt 0.1034 0.0559
vt 0.2525 0.2062
vt 0.2526 0.2200
vt 0.2544 0.3718
vt 0.2541 0.2044
vt 0.7476 0.1321
vt 0.7490 0.1394
vt 0.7519 0.1450
vn 0.8846 -0.4662 0.0102
vn 0.6292 0.1322 0.7659
vn 0.8635 -0.4639 0.1982
vn 0.9320 0.3537 0.0787
vn 0.9872 0.1591 0.0074
vn 0.4165 -0.2819 0.8643
vn 0.2665 -0.2086 0.9410
vn 0.8459 -0.3956 0.3577
vn 0.7328 -0.3611 -0.5767
vn 0.1241 -0.1563 -0.9799
vn 0.8813 -0.0452 -0.4704
vn 0.9210 -0.0366 0.3880
vn 0.1224 0.0213 0.9922
vn 0.1744 -0.0059 -0.9847
vn 0.6229 -0.7628 -0.1737
vn 0.3815 -0.4287 -0.8189
vn 0.6598 -0.7514 -0.0059
vn 0.6438 -0.5371 0.5450
vn 0.6413 -0.6603 -0.3908
vn 0.1835 -0.2473 -0.9514
vn 0.8846 0.4662 0.0102
vn 0.6292 -0.1322 0.7659
vn 0.8635 0.4639 0.1982
vn 0.9320 -0.3537 0.0787
vn 0.9872 -0.1591 0.0074
vn 0.4165 0.2819 0.8643
vn 0.2665 0.2086 0.9410
vn 0.8459 0.3956 0.3577
vn 0.7328 0.3611 -0.5767
vn 0.1241 0.1563 -0.9799
vn 0.8813 0.0452 -0.4704
vn 0.9210 0.0366 0.3880
vn 0.1224 -0.0213 0.9922
vn 0.1744 0.0059 -0.9847
vn 0.6229 0.7628 -0.1737
vn 0.3815 0.4287 -0.8189
vn 0.6598 0.7514 -0.0059
vn 0.6438 0.5371 0.5450
vn 0.6413 0.6603 -0.3908
vn 0.1835 0.2473 -0.9514
vn -0.8846 -0.4662 0.0102
vn -0.6292 0.1322 0.7659
vn -0.8635 -0.4639 0.1982
vn -0.9320 0.3537 0.0787
vn -0.9872 0.1591 0.0074
vn -0.4165 -0.2819 0.8643
vn -0.2665 -0.2086 0.9410
vn -0.8459 -0.3956 0.3577
vn -0.7328 -0.3611 -0.5767
vn -0.1241 -0.1563 -0.9799
vn -0.8813 -0.0452 -0.4704
vn -0.9210 -0.0366 0.3880
vn -0.1224 0.0213 0.9922
vn -0.1744 -0.0059 -0.9847
vn -0.6229 -0.7628 -0.1737
vn -0.3815 -0.4287 -0.8189
vn -0.6598 -0.7514 -0.0059
vn -0.6438 -0.5371 0.5450
vn -0.6413 -0.6603 -0.3908
vn -0.1835 -0.2473 -0.9514
vn -0.8846 0.4662 0.0102
vn -0.6292 -0.1322 0.7659
vn -0.8635 0.4639 0.1982
vn -0.9320 -0.3537 0.0787
vn -0.9872 -0.1591 0.0074
vn -0.4165 0.2819 0.8643
vn -0.2665 0.2086 0.9410
vn -0.8459 0.3956 0.3577
vn -0.7328 0.3611 -0.5767
vn -0.1241 0.1563 -0.9799
vn -0.8813 0.0452 -0.4704
vn -0.9210 0.0366 0.3880
vn -0.1224 -0.0213 0.9922
vn -0.1744 0.0059 -0.9847
vn -0.6229 0.7628 -0.1737
vn -0.3815 0.4287 -0.8189
vn -0.6598 0.7514 -0.0059
vn -0.6438 0.5371 0.5450
vn -0.6413 0.6603 -0.3908
vn -0.1835 0.2473 -0.9514
usemtl None
s 1
f 1/1/1 6/2/1 5/3/1 4/4/1 3/5/1 2/6/1
f 6/2/2 9/7/2 8/8/2 7/9/2
f 3/5/3 4/4/3 10/10/3
f 11/11/4 10/10/4 4/4/4
f 4/4/5 5/3/5 6/2/5 7/9/5 11/11/5
f 1/1/6 12/12/6 9/7/6 6/2/6
f 12/13/7 13/14/7 9/15/7
f 13/14/8 14/16/8 9/15/8
f 14/16/9 13/14/9 15/17/9
f 15/17/10 13/14/10 16/18/10
f 15/17/11 19/19/11 18/20/11 17/21/11 14/16/11
f 14/16/12 17/21/12 21/22/12 20/23/12 9/15/12
f 9/15/13 20/23/13 8/24/13
f 15/17/14 16/18/14 19/19/14
f 22/25/15 25/26/15 24/27/15 23/28/15
f 19/19/16 16/18/16 23/29/16 24/30/16
f 25/26/17 22/25/17 27/31/17 26/32/17
f 26/33/18 27/34/18 29/35/18 28/36/18
f 28/36/19 29/35/19 31/37/19 30/38/19
f 30/38/20 31/37/20 32/39/20
f 33/40/21 38/41/21 37/42/21 36/43/21 35/44/21 34/45/21
f 34/45/22 7/9/22 8/8/22 39/46/22
f 37/42/23 10/10/23 36/43/23
f 11/11/24 36/43/24 10/10/24
f 36/43/25 11/11/25 7/9/25 34/45/25 35/44/25
f 33/40/26 34/45/26 39/46/26 40/47/26
f 40/48/27 39/49/27 41/50/27
f 41/50/28 39/49/28 42/51/28
f 42/51/29 43/52/29 41/50/29
f 43/52/30 44/53/30 41/50/30
f 43/52/31 42/51/31 17/21/31 18/20/31 19/19/31
f 42/51/32 39/49/32 20/23/32 21/22/32 17/21/32
f 39/49/33 8/24/33 20/23/33
f 43/52/34 19/19/34 44/53/34
f 45/54/35 46/55/35 24/27/35 25/26/35
f 19/19/36 24/30/36 46/56/36 44/53/36
f 25/26/37 26/32/37 47/57/37 45/54/37
f 26/33/38 28/36/38 48/58/38 47/59/38
f 28/36/39 30/38/39 49/60/39 48/58/39
f 30/38/40 32/39/40 49/60/40
f 1/1/41 2/6/41 3/5/41 52/61/41 51/62/41 50/63/41
f 50/63/42 55/64/42 54/65/42 53/66/42
f 3/5/43 10/10/43 52/61/43
f 56/67/44 52/61/44 10/10/44
f 52/61/45 56/67/45 55/64/45 50/63/45 51/62/45
f 1/1/46 50/63/46 53/66/46 12/12/46
f 12/13/47 53/68/47 13/14/47
f 13/14/48 53/68/48 57/69/48
f 57/69/49 58/70/49 13/14/49
f 58/70/50 16/18/50 13/14/50
f 58/70/51 57/69/51 61/71/51 60/72/51 59/73/51
f 57/69/52 53/68/52 63/74/52 62/75/52 61/71/52
f 53/68/53 54/76/53 63/74/53
f 58/70/54 59/73/54 16/18/54
f 22/25/55 23/28/55 65/77/55 64/78/55
f 59/73/56 65/79/56 23/29/56 16/18/56
f 64/78/57 66/80/57 27/31/57 22/25/57
f 66/81/58 67/82/58 29/35/58 27/34/58
f 67/82/59 68/83/59 31/37/59 29/35/59
f 68/83/60 32/39/60 31/37/60
f 33/40/61 71/84/61 70/85/61 69/86/61 37/42/61 38/41/61
f 71/84/62 72/87/62 54/65/62 55/64/62
f 37/42/63 69/86/63 10/10/63
f 56/67/64 10/10/64 69/86/64
f 69/86/65 70/85/65 71/84/65 55/64/65 56/67/65
f 33/40/66 40/47/66 72/87/66 71/84/66
f 40/48/67 41/50/67 72/88/67
f 41/50/68 73/89/68 72/88/68
f 73/89/69 41/50/69 74/90/69
f 74/90/70 41/50/70 44/53/70
f 74/90/71 59/73/71 60/72/71 61/71/71 73/89/71
f 73/89/72 61/71/72 62/75/72 63/74/72 72/88/72
f 72/88/73 63/74/73 54/76/73
f 74/90/74 44/53/74 59/73/74
f 45/54/75 64/78/75 65/77/75 46/55/75
f 59/73/76 44/53/76 46/56/76 65/79/76
f 64/78/77 45/54/77 47/57/77 66/80/77
f 66/81/78 47/59/78 48/58/78 67/82/78
f 67/82/79 48/58/79 49/60/79 68/83/79
f 68/83/80 49/60/80 32/39/80
